{
	"asset":{
		"version":"2.0",
		"generator":"Created using the official Cinema 4D glTF Exporter 1.000x284978"
	},
	"samplers":[{
		"magFilter":9729,
		"minFilter":9729,
		"wrapS":10497,
		"wrapT":10497
	},
	{
		"magFilter":9729,
		"minFilter":9729,
		"wrapS":10497,
		"wrapT":10497
	}],
	"scenes":[{
		"nodes":[0,
		1]
	}],
	"images":[{
		"uri":"data:image/jpeg;base64,"
	},
	{
		"uri":"data:image/jpeg;base64,"
	}],
	"nodes":[{
		"name":"Piano.1",
		"mesh":0
	},
	{
		"name":"Piano",
		"mesh":1
	}],
	"meshes":[{
		"name":"Piano.1",
		"primitives":[{
			"attributes":{
				"POSITION":1,
				"TEXCOORD_0":2
			},
			"indices":0,
			"material":0
		}]
	},
	{
		"name":"Piano",
		"primitives":[{
			"attributes":{
				"POSITION":4,
				"TEXCOORD_0":5
			},
			"indices":3,
			"material":1
		}]
	}],
	"textures":[{
		"sampler":0,
		"source":0
	},
	{
		"sampler":1,
		"source":1
	}],
	"buffers":[{
		"uri":"data:application/octet-stream;base64,",
		"byteLength":3620
	},
	{
		"uri":"data:application/octet-stream;base64,",
		"byteLength":3620
	}],
	"accessors":[{
		"componentType":5123,
		"bufferView":0,
		"type":"SCALAR",
		"count":600,
		"byteOffset":0,
		"min":[0],
		"max":[120]
	},
	{
		"componentType":5126,
		"bufferView":1,
		"type":"VEC3",
		"count":121,
		"byteOffset":0,
		"min":[-350.0,
		0.0,
		-250.0],
		"max":[350.0,
		0.0,
		250.0]
	},
	{
		"componentType":5126,
		"bufferView":1,
		"type":"VEC2",
		"count":121,
		"byteOffset":12,
		"min":[0.0007704828167334199,
		0.0006512546679005027],
		"max":[0.9980506896972656,
		0.9980506896972656]
	},
	{
		"componentType":5123,
		"bufferView":2,
		"type":"SCALAR",
		"count":600,
		"byteOffset":0,
		"min":[0],
		"max":[120]
	},
	{
		"componentType":5126,
		"bufferView":3,
		"type":"VEC3",
		"count":121,
		"byteOffset":0,
		"min":[-350.0,
		0.0,
		-250.0],
		"max":[350.0,
		0.0,
		250.0]
	},
	{
		"componentType":5126,
		"bufferView":3,
		"type":"VEC2",
		"count":121,
		"byteOffset":12,
		"min":[0.0,
		0.0],
		"max":[1.0,
		1.0]
	}],
	"bufferViews":[{
		"buffer":0,
		"byteOffset":0,
		"byteLength":1200,
		"target":34963
	},
	{
		"buffer":0,
		"byteOffset":1200,
		"byteLength":2420,
		"target":34962,
		"byteStride":20
	},
	{
		"buffer":1,
		"byteOffset":0,
		"byteLength":1200,
		"target":34963
	},
	{
		"buffer":1,
		"byteOffset":1200,
		"byteLength":2420,
		"target":34962,
		"byteStride":20
	}],
	"materials":[{
		"pbrMetallicRoughness":{
			"baseColorTexture":{
				"index":0
			},
			"baseColorFactor":[0.8,
			0.8,
			0.8,
			1.0],
			"metallicFactor":0.0,
			"roughnessFactor":0.5
		},
		"emissiveFactor":[0.0,
		0.0,
		0.0],
		"alphaMode":"OPAQUE",
		"doubleSided":false,
		"name":"Piano"
	},
	{
		"pbrMetallicRoughness":{
			"baseColorTexture":{
				"index":1
			},
			"baseColorFactor":[0.8,
			0.8,
			0.8,
			1.0],
			"metallicFactor":0.0,
			"roughnessFactor":0.5
		},
		"emissiveFactor":[0.0,
		0.0,
		0.0],
		"alphaMode":"OPAQUE",
		"doubleSided":false,
		"name":"Nuovo"
	}]
}